<svg width="375" height="5721" viewBox="0 0 375 5721" fill="none" xmlns="http://www.w3.org/2000/svg">
<rect y="3820" width="375" height="1901" fill="#1C1A19"/>
<g clip-path="url(#clip0_176849_58)">
<path d="M434.82 347.489L448.241 343.769L444.523 330.354L431.102 334.075L427.383 320.66L440.805 316.94L437.086 303.525L423.665 307.245L410.244 310.965L406.526 297.551L419.947 293.831L416.228 280.416L402.807 284.136L406.526 297.551L393.104 301.271L379.683 304.991L375.965 291.576L362.544 295.297L349.123 299.017L352.841 312.431L356.559 325.846L343.138 329.566L339.42 316.152L333.432 317.811L327.168 227.431C327.168 227.431 336.06 214.188 359.95 213.344C395.734 212.093 413.297 231.337 442.911 237.907C461.522 242.082 465.651 233.715 465.651 233.715L477.727 311.373C477.727 311.373 508.875 304.628 526.661 325.477C537.215 337.886 521.351 350.839 504.936 355.389C487.798 360.14 467.529 357.202 435.077 348.418L434.82 347.489V347.489Z" fill="white" stroke="#FF6B00" stroke-width="0.496227" stroke-miterlimit="10"/>
<path d="M372.156 329.967C366.932 329.971 362.35 330.685 358.192 331.727L356.561 325.845L369.982 322.125L372.156 329.967Z" fill="white" stroke="#FF6B00" stroke-width="0.496227" stroke-miterlimit="10"/>
<path d="M336.535 345.841L335.503 346.127L334.468 331.969L343.141 329.565L345.314 337.407C340.891 340.3 337.907 343.572 336.535 345.841Z" fill="white" stroke="#FF6B00" stroke-width="0.496227" stroke-miterlimit="10"/>
<path d="M366.262 308.712L379.684 304.992L383.402 318.406L369.981 322.126L366.262 308.712Z" fill="white" stroke="#FF6B00" stroke-width="0.496227" stroke-miterlimit="10"/>
<path d="M383.731 215.306C383.731 215.306 370.747 208.571 354.309 214.239C337.87 219.906 298.197 256.46 298.197 256.46L296.95 327.365C296.95 327.365 345.371 286.276 361.321 282.855C376.52 279.531 389.475 286.162 389.475 286.162L383.731 215.306Z" fill="#262626"/>
<path d="M371.07 197.704C371.07 197.704 358.812 193.99 341.647 196.637C326.191 199.032 285.535 238.858 285.535 238.858L284.289 309.764C284.289 309.764 333.196 270.428 348.66 265.253C364.123 260.078 376.529 265.528 376.529 265.528L371.07 197.704Z" fill="white" stroke="#FF6B00" stroke-width="0.496227" stroke-miterlimit="10"/>
<path d="M330.318 201.888L330.549 233.604L299.652 258.502L299.829 225.451L322.39 206.975L330.318 201.888Z" fill="#262626"/>
<path d="M365.853 337.713L400.542 328.098L406.634 350.077L371.946 359.692L365.853 337.713Z" fill="white" stroke="#FF6B00" stroke-width="0.496227" stroke-miterlimit="10"/>
<path d="M397.818 341.249L394.012 344.734L393.768 343.853L396.69 341.295L396.674 341.24L392.853 340.551L392.609 339.67L397.665 340.699L397.818 341.249ZM387.817 338.746L388.56 338.54L393.169 346.346L392.426 346.552L387.817 338.746ZM384.434 347.626L380.497 345.398L382.725 341.461L383.401 341.844L381.823 344.623L387.472 343.057L387.682 343.814L382.033 345.38L384.818 346.957L384.434 347.626ZM374.304 347.767L374.151 347.216L377.957 343.731L378.201 344.612L375.28 347.17L375.295 347.225L379.117 347.915L379.361 348.795L374.304 347.767Z" fill="black"/>
<path d="M322.342 199.989L322.469 231.733L291.572 256.632L291.759 226.023L322.342 199.989Z" fill="white" stroke="#262626" stroke-width="0.496227" stroke-miterlimit="10"/>
<path d="M366.699 173.915L363.892 144.135L394.817 119.34L397.281 147.881L366.699 173.915Z" fill="white" stroke="#262626" stroke-width="0.496227" stroke-miterlimit="10"/>
<path d="M380.591 151.842C378.652 152.379 376.645 151.244 376.108 149.307C375.571 147.369 376.707 145.363 378.646 144.825C380.585 144.288 382.592 145.423 383.129 147.361C383.666 149.298 382.53 151.305 380.591 151.842Z" fill="white" stroke="#262626" stroke-width="0.496227" stroke-miterlimit="10"/>
<path d="M307.721 237.489L307.719 248.712L296.817 257.512L296.934 246.702L307.721 237.489Z" fill="white" stroke="#262626" stroke-width="0.496227" stroke-miterlimit="10"/>
<path d="M347.26 254.197L347.351 272.173L330.444 282.971L330.525 265.614L347.26 254.197Z" fill="white" stroke="#262626" stroke-width="0.496227" stroke-miterlimit="10"/>
</g>
<defs>
<clipPath id="clip0_176849_58">
<rect width="406.889" height="312.031" fill="white" transform="matrix(-0.963665 0.267112 0.267112 0.963665 620.104 0)"/>
</clipPath>
</defs>
</svg>
